<svg xmlns="http://www.w3.org/2000/svg" viewBox="0 0 2200 2092.32">
    <defs>
        <style>.cls-1{fill:#020202;}</style>
    </defs>
    <g id="objects">
        <path class="cls-1"
              d="M1100,194.29l217.29,600.16,15.24,42.11,44.75,1.48,637.94,21.19-503.65,392.12-35.33,27.51,12.42,43,177,613.26-528.56-357.82-37.08-25.1-37.08,25.1L534.36,1935.14l177-613.26,12.42-43-35.34-27.51L184.78,859.23,822.72,838l44.75-1.48,15.24-42.11L1100,194.29M1100,0,820.52,771.94,0,799.2l647.79,504.34L420.16,2092.32,1100,1632.09l679.84,460.23-227.63-788.78L2200,799.2l-820.52-27.26L1100,0Z"/>
    </g>
</svg>